<?xml version="1.0" standalone="no"?>
<!DOCTYPE svg PUBLIC "-//W3C//DTD SVG 20010904//EN"
 "http://www.w3.org/TR/2001/REC-SVG-20010904/DTD/svg10.dtd">
<svg version="1.0" xmlns="http://www.w3.org/2000/svg"
 width="512.000000pt" height="512.000000pt" viewBox="0 0 512.000000 512.000000"
 preserveAspectRatio="xMidYMid meet">
<metadata>
Created by potrace 1.14, written by Peter Selinger 2001-2017
</metadata>
<g transform="translate(0.000000,512.000000) scale(0.100000,-0.100000)"
fill="#000000" stroke="none">
<path d="M2336 5034 c-102 -13 -149 -27 -177 -51 -9 -7 -42 -18 -75 -23 -100
-18 -316 -72 -367 -92 -125 -49 -223 -104 -262 -145 -23 -24 -48 -43 -56 -43
-39 -1 -177 -87 -266 -167 -42 -38 -183 -202 -183 -214 0 -5 -14 -32 -31 -60
-33 -53 -102 -246 -137 -385 -38 -146 -46 -217 -46 -389 1 -182 17 -299 54
-382 11 -25 20 -52 20 -61 0 -8 16 -39 35 -68 19 -29 35 -58 35 -64 0 -6 8
-32 19 -58 18 -46 47 -152 61 -225 6 -28 3 -46 -12 -73 -14 -26 -16 -40 -9
-47 13 -13 15 -47 3 -47 -5 0 -17 7 -28 15 -26 19 -63 19 -71 -1 -3 -9 -2 -28
3 -43 8 -22 16 -26 52 -27 72 -2 87 -25 102 -155 8 -64 8 -113 2 -154 -10 -57
-9 -61 16 -87 51 -55 57 -43 72 152 14 174 30 293 40 304 4 4 30 12 56 17 26
5 67 18 90 30 38 18 56 20 176 15 92 -3 148 -10 183 -22 78 -28 104 -76 49
-90 -14 -4 -29 -15 -35 -25 -8 -16 -21 -19 -76 -19 -108 0 -308 -56 -335 -94
-20 -29 66 -56 173 -56 52 0 62 3 66 20 7 28 27 25 41 -5 22 -47 61 -51 285
-29 45 5 63 12 82 32 14 15 39 33 57 42 31 14 33 18 30 60 -3 35 2 52 18 73
24 30 34 77 16 77 -15 0 -56 73 -56 99 0 27 -39 51 -92 58 -24 3 -47 9 -53 13
-32 22 -201 50 -310 50 -50 0 -96 6 -123 17 -40 15 -46 15 -78 0 -19 -10 -49
-17 -66 -17 -26 0 -30 3 -25 22 4 13 -4 39 -20 67 -52 92 -57 165 -22 301 5
19 22 89 38 156 15 66 34 132 42 146 8 14 24 44 37 66 41 75 83 114 167 152
44 21 102 43 129 49 27 7 69 22 95 35 25 13 66 26 91 30 64 10 201 13 207 4 2
-5 17 -8 33 -8 22 0 29 6 34 26 5 19 11 24 26 19 11 -3 37 3 61 16 32 16 54
20 91 17 27 -3 51 -1 54 3 7 12 44 11 44 -1 0 -17 16 -12 72 21 46 28 63 32
123 32 50 0 84 -6 119 -21 27 -12 57 -22 68 -22 11 0 22 -9 25 -20 4 -17 14
-20 55 -20 44 0 57 -6 111 -47 68 -52 99 -86 108 -117 4 -14 13 -20 27 -19 25
3 62 -24 62 -45 0 -8 9 -26 19 -41 11 -15 23 -45 27 -66 4 -22 10 -42 14 -45
3 -3 17 -27 29 -55 12 -27 28 -61 35 -75 7 -14 22 -54 32 -89 14 -47 27 -70
50 -88 28 -21 32 -30 30 -63 -2 -21 1 -44 5 -52 7 -10 9 -10 9 0 0 6 5 12 10
12 13 0 13 -84 0 -130 -9 -32 -15 -37 -57 -48 -41 -11 -49 -11 -59 2 -6 9 -16
16 -23 16 -6 0 -11 4 -11 10 0 5 -13 7 -30 4 -18 -4 -30 -2 -30 4 0 5 9 8 20
5 11 -3 20 -1 20 5 0 5 -14 12 -31 16 -26 5 -37 1 -58 -20 -14 -15 -27 -21
-29 -14 -3 8 -8 8 -18 -1 -20 -17 -101 -2 -117 21 -17 25 -74 21 -142 -9 -28
-13 -80 -25 -120 -28 -76 -6 -108 -15 -230 -63 -70 -29 -135 -76 -135 -100 0
-5 -5 -10 -12 -12 -6 -2 -12 -26 -12 -54 -1 -48 -2 -49 -33 -52 -22 -2 -33 -9
-33 -19 0 -8 -8 -17 -18 -20 -29 -7 -23 -37 11 -53 17 -8 35 -24 41 -35 6 -11
16 -24 23 -30 11 -9 22 -72 26 -147 3 -38 13 -43 43 -19 15 11 32 21 39 21 7
0 15 10 19 22 3 13 23 41 45 63 22 22 40 46 41 53 0 14 26 16 35 2 3 -5 -1
-23 -10 -39 -8 -17 -15 -39 -15 -51 0 -22 28 -25 105 -12 36 7 40 11 45 42 7
50 40 53 68 6 20 -34 24 -36 74 -36 29 0 85 9 123 20 41 12 93 20 125 18 36
-1 66 4 87 15 18 9 48 17 68 17 37 0 63 19 96 69 15 23 17 24 67 11 29 -6 52
-15 52 -19 0 -4 16 -23 35 -44 28 -30 35 -44 33 -75 -1 -26 6 -49 22 -70 18
-24 25 -51 31 -127 10 -117 15 -135 39 -135 23 0 30 -19 17 -47 -7 -16 -5 -32
8 -60 10 -21 18 -52 17 -70 -1 -18 3 -35 8 -38 6 -3 10 -14 10 -24 0 -10 7
-24 15 -31 19 -15 45 3 45 31 0 10 10 25 22 33 13 9 31 42 43 78 22 66 39 82
50 47 4 -11 14 -30 23 -40 20 -23 62 -26 62 -4 0 11 8 13 30 9 31 -7 60 8 60
32 0 7 -10 14 -22 16 -12 2 -23 8 -25 14 -6 19 60 107 96 128 l34 20 -7 -42
c-6 -40 -5 -42 18 -42 18 0 32 13 55 47 47 71 38 87 -31 58 -33 -13 -14 50 40
135 12 19 22 46 23 60 0 14 6 40 13 58 l12 34 13 -29 c41 -85 46 -92 52 -80
11 21 20 91 22 175 2 68 5 84 22 95 10 8 25 12 33 9 10 -3 13 0 9 14 -3 10 -9
35 -12 54 -10 46 -57 140 -84 164 -18 16 -43 24 -90 28 -8 1 -16 9 -18 19 -3
10 -13 21 -24 24 -23 8 -33 39 -20 64 6 10 16 59 22 107 6 49 15 116 19 149 8
60 22 104 52 160 11 21 16 59 17 123 0 52 3 97 6 101 2 4 7 56 11 115 7 125
-8 249 -38 316 -11 25 -35 91 -53 147 -18 56 -48 126 -69 157 -20 30 -36 59
-36 65 0 15 -60 81 -74 81 -7 0 -21 9 -31 20 -10 11 -43 37 -74 57 -31 20 -60
43 -64 50 -4 7 -18 13 -31 13 -12 0 -31 7 -42 15 -18 13 -18 14 -1 15 10 0 31
-7 48 -16 28 -14 69 -12 69 5 0 13 -73 48 -112 54 -21 3 -61 18 -90 32 -41 21
-61 25 -88 20 -19 -4 -57 -8 -85 -9 -27 -1 -59 -7 -70 -13 -11 -6 -59 -13
-107 -17 l-88 -7 -20 33 c-11 18 -23 44 -26 58 -9 41 -20 55 -48 58 -17 2 -31
13 -42 34 -19 38 -68 81 -152 135 -82 53 -144 74 -230 78 -37 1 -80 8 -95 14
-35 14 -84 13 -211 -5z m625 -2447 c39 -7 69 -26 69 -42 0 -8 4 -15 8 -15 5 0
9 -6 9 -14 0 -8 -6 -12 -13 -9 -20 7 -84 -17 -81 -30 1 -7 11 -15 22 -19 14
-6 11 -7 -10 -4 -16 2 -56 0 -90 -4 -216 -30 -313 -43 -335 -45 -14 -1 -35 -5
-47 -9 -33 -11 -28 1 17 46 22 22 40 46 40 53 0 16 58 60 112 86 37 17 59 19
158 15 63 -2 127 -6 141 -9z m1194 -148 c13 -52 4 -104 -10 -59 -4 13 -14 30
-21 38 -8 7 -14 27 -14 43 0 49 30 33 45 -22z"/>
<path d="M3050 4824 c0 -8 5 -12 10 -9 6 4 8 11 5 16 -9 14 -15 11 -15 -7z"/>
<path d="M314 4784 c3 -9 6 -21 7 -27 0 -7 4 -3 9 8 13 29 12 35 -6 35 -11 0
-14 -5 -10 -16z"/>
<path d="M410 4780 c0 -5 5 -10 10 -10 6 0 10 5 10 10 0 6 -4 10 -10 10 -5 0
-10 -4 -10 -10z"/>
<path d="M380 4766 c0 -9 7 -16 16 -16 17 0 14 22 -4 28 -7 2 -12 -3 -12 -12z"/>
<path d="M1721 2110 c-36 -20 -97 -34 -195 -45 -40 -5 -55 -10 -45 -16 19 -12
153 -11 209 2 48 11 120 52 120 69 0 16 -53 10 -89 -10z"/>
<path d="M374 1636 c-31 -11 -95 -55 -126 -87 -14 -15 -33 -17 -106 -16 -62 1
-94 -2 -105 -11 -9 -8 -21 -11 -28 -7 -7 5 -10 1 -7 -11 2 -12 11 -18 23 -16
61 11 91 5 118 -20 16 -15 27 -36 27 -51 0 -25 18 -37 60 -42 8 -1 34 -5 57
-9 31 -6 51 -3 74 8 17 8 67 21 112 27 45 7 89 18 98 25 8 8 31 13 50 12 40
-1 62 8 54 23 -4 5 2 9 12 10 10 1 5 5 -13 11 -21 7 -37 22 -48 45 -10 21 -27
38 -46 45 -17 5 -30 13 -30 18 0 4 -18 19 -40 34 -42 28 -83 32 -136 12z"/>
<path d="M2629 1565 c-8 -65 -48 -115 -93 -115 -17 0 -55 9 -84 20 -91 35
-137 27 -203 -36 -32 -31 -42 -35 -110 -40 -40 -3 -79 -10 -86 -15 -12 -11
-30 7 -19 18 3 4 -4 17 -16 30 -28 30 -86 31 -114 3 -42 -42 -45 -49 -34 -70
15 -28 42 -40 90 -40 29 0 47 6 58 19 25 29 107 14 140 -24 15 -18 20 -31 13
-38 -14 -14 16 -57 40 -57 13 0 19 7 19 23 0 30 29 57 61 57 14 0 48 6 75 14
27 8 82 17 122 20 71 6 121 27 122 51 0 6 13 22 29 37 16 16 32 43 36 64 5 32
3 41 -19 63 -14 14 -27 21 -27 16z"/>
<path d="M0 1455 c0 -17 46 -39 61 -29 16 9 10 20 -16 32 -34 16 -45 15 -45
-3z"/>
<path d="M2420 1160 c-41 -4 -92 -14 -112 -23 -21 -9 -49 -17 -64 -17 -15 0
-50 -6 -78 -14 -28 -8 -91 -20 -141 -26 -67 -8 -104 -19 -142 -41 -29 -16 -68
-29 -86 -29 -36 0 -77 -24 -77 -45 0 -15 13 -20 80 -30 25 -4 53 -12 63 -17
13 -6 28 -6 46 2 15 6 70 12 123 15 53 2 105 8 116 14 25 13 157 17 312 8 63
-4 121 -7 128 -7 6 0 12 -3 12 -8 0 -11 -43 -53 -84 -82 -19 -14 -37 -32 -39
-41 -5 -18 -46 -26 -182 -34 -102 -6 -125 -12 -125 -30 0 -9 -11 -21 -25 -27
-52 -24 -16 -88 50 -88 16 0 61 -7 98 -16 53 -13 73 -14 90 -5 12 6 35 10 51
9 26 -3 30 1 38 32 6 19 18 40 29 48 13 9 18 20 14 33 -4 13 -2 19 9 19 8 0
19 7 23 15 5 8 32 39 61 69 28 31 52 65 52 76 0 17 4 20 19 15 15 -4 42 15
113 82 103 96 108 102 108 122 0 10 -11 12 -47 7 -132 -17 -205 -18 -241 -3
-47 20 -97 24 -192 17z m84 -118 c11 -18 -46 -62 -81 -62 -46 0 -39 45 11 59
41 12 64 13 70 3z m-330 -38 c28 -11 6 -24 -39 -24 -69 0 -67 25 2 29 12 0 28
-2 37 -5z m161 -14 c-3 -5 -21 -10 -40 -10 -19 0 -37 5 -40 10 -4 6 12 10 40
10 28 0 44 -4 40 -10z"/>
<path d="M3668 839 c-16 -16 -28 -34 -28 -39 0 -5 -13 -23 -30 -40 -16 -17
-30 -40 -30 -50 0 -11 -7 -20 -15 -20 -7 0 -18 -6 -22 -12 -12 -20 -55 -54
-53 -43 6 28 -1 34 -20 15 -11 -11 -27 -20 -35 -20 -19 0 -55 -20 -76 -42 -9
-10 -20 -18 -23 -18 -4 0 -30 -19 -58 -42 -92 -78 -422 -262 -533 -298 -22 -7
-62 -22 -90 -33 -35 -14 -81 -21 -155 -24 -58 -3 -138 -7 -177 -10 -47 -3 -73
-2 -73 5 0 10 49 25 66 20 16 -4 114 13 114 20 0 4 14 13 30 20 17 8 30 20 30
28 0 21 -28 17 -42 -6 -7 -11 -16 -20 -21 -20 -4 0 -6 4 -3 9 4 5 -9 6 -29 1
-34 -8 -52 1 -41 19 3 4 -1 16 -8 27 -13 17 -17 17 -92 -20 -74 -36 -202 -65
-224 -51 -5 3 -11 1 -15 -5 -4 -6 -10 -8 -15 -5 -4 3 -13 -8 -18 -24 -8 -23
-5 -44 16 -105 l25 -76 477 0 476 0 89 78 c145 127 465 450 465 469 0 6 17 30
39 54 42 49 126 204 117 218 -4 5 -1 11 5 13 6 2 10 11 8 20 -3 14 -9 12 -31
-13z"/>
<path d="M3873 833 c2 -5 13 -29 25 -55 21 -45 24 -48 61 -48 22 0 48 -8 62
-19 35 -27 167 -294 179 -363 13 -67 -1 -230 -25 -297 -8 -24 -15 -45 -15 -48
0 -2 44 -2 97 -1 l97 3 9 43 c10 53 -6 283 -26 374 -9 36 -23 81 -33 99 l-17
34 -15 -23 -15 -22 -19 22 c-26 30 -58 103 -58 133 0 30 -56 87 -112 116 -84
43 -208 76 -195 52z"/>
<path d="M2530 710 c0 -5 9 -10 21 -10 11 0 17 5 14 10 -3 6 -13 10 -21 10 -8
0 -14 -4 -14 -10z"/>
<path d="M2536 282 c-3 -5 1 -9 9 -9 8 0 15 4 15 9 0 4 -4 8 -9 8 -6 0 -12 -4
-15 -8z"/>
</g>
</svg>
